<svg width="32" height="32" viewBox="0 0 32 32" fill="none" xmlns="http://www.w3.org/2000/svg">
  <rect width="32" height="32" rx="4" fill="#005DAA"/>
  <path d="M8.5 24V8.5H12.8C14.2 8.5 15.3 8.8 16.1 9.4C16.9 10 17.3 10.9 17.3 12.1C17.3 12.8 17.1 13.4 16.7 13.9C16.3 14.4 15.8 14.7 15.2 14.9V15C15.9 15.1 16.5 15.5 16.9 16.1C17.3 16.7 17.5 17.4 17.5 18.2C17.5 19.5 17.1 20.5 16.2 21.2C15.3 21.9 14.1 22.3 12.6 22.3H8.5V24ZM11.2 14.2H12.6C13.2 14.2 13.7 14 14 13.6C14.3 13.2 14.5 12.7 14.5 12.1C14.5 11.5 14.3 11 14 10.7C13.7 10.4 13.2 10.2 12.6 10.2H11.2V14.2ZM11.2 21.6H12.8C13.5 21.6 14 21.4 14.4 21C14.8 20.6 15 20.1 15 19.4C15 18.7 14.8 18.2 14.4 17.8C14 17.4 13.5 17.2 12.8 17.2H11.2V21.6Z" fill="white"/>
  <path d="M19.2 24V8.5H24.5V10.2H21.9V15.1H24.2V16.8H21.9V22.3H24.5V24H19.2Z" fill="white"/>
</svg>